<?xml version="1.0" encoding="UTF-8" standalone="no"?>
<!-- Generator: Adobe Illustrator 16.0.0, SVG Export Plug-In . SVG Version: 6.00 Build 0)  -->

<svg
   xmlns:dc="http://purl.org/dc/elements/1.1/"
   xmlns:cc="http://creativecommons.org/ns#"
   xmlns:rdf="http://www.w3.org/1999/02/22-rdf-syntax-ns#"
   xmlns:svg="http://www.w3.org/2000/svg"
   xmlns="http://www.w3.org/2000/svg"
   xmlns:xlink="http://www.w3.org/1999/xlink"
   xmlns:sodipodi="http://sodipodi.sourceforge.net/DTD/sodipodi-0.dtd"
   xmlns:inkscape="http://www.inkscape.org/namespaces/inkscape"
   version="1.1"
   id="Layer_1_2_"
   x="0px"
   y="0px"
   width="185px"
   height="60px"
   viewBox="0 0 219.73 74.45"
   enable-background="new 0 0 219.73 74.45"
   xml:space="preserve"
   inkscape:version="0.48.4 r9939"
   sodipodi:docname="gdg-devfest.svg"><metadata
     id="metadata187"><rdf:RDF><cc:Work
         rdf:about=""><dc:format>image/svg+xml</dc:format><dc:type
           rdf:resource="http://purl.org/dc/dcmitype/StillImage" /><dc:title></dc:title></cc:Work></rdf:RDF></metadata><defs
     id="defs185" /><sodipodi:namedview
     pagecolor="#ffffff"
     bordercolor="#666666"
     borderopacity="1"
     objecttolerance="10"
     gridtolerance="10"
     guidetolerance="10"
     inkscape:pageopacity="0"
     inkscape:pageshadow="2"
     inkscape:window-width="1920"
     inkscape:window-height="1145"
     id="namedview183"
     showgrid="false"
     inkscape:zoom="8.9591103"
     inkscape:cx="111.65797"
     inkscape:cy="35.384159"
     inkscape:window-x="0"
     inkscape:window-y="27"
     inkscape:window-maximized="1"
     inkscape:current-layer="g165" /><polygon
     fill="none"
     points="-17.029,-15.336 -16.029,-15.336 -17.029,-14.336 "
     id="polygon3" /><polygon
     fill="none"
     points="-19.029,-17.336 -20.029,-17.336 -19.029,-18.336 "
     id="polygon5" /><g
     id="layer2"
     transform="translate(1.8672 1.5566)"><g
       id="Color_Fill_1_xA0_Image_1_"
       transform="translate(-19.897 -17.893)"><path
         id="path6"
         display="none"
         fill="#F0F0F0"
         d="M214.479,51.494l-17.5-29.146c-0.968-1.608-3.298-2.93-5.179-2.93h-0.059    L24.061,19.422c-1.748,0-2.449,1.154-1.769,2.608l6.646,11.067c0.06,0.111,0.088,0.252,0.146,0.371l10.824,18.016    c0.969,1.617,0.969,4.251,0,5.861l-6.385,10.752c-0.062,0.088-0.153,0.168-0.22,0.26L22.413,86.489    c-0.97,1.607-0.222,2.93,1.653,2.93l167.681-0.004h0.059c1.882,0,4.212-1.312,5.179-2.93l6.675-11.104l10.823-18.028    c0.97-1.615,0.97-4.251,0-5.859L214.479,51.494L214.479,51.494z" /><g
         id="g4"><g
           id="g8"
           display="none"><g
             display="inline"
             id="g12"><defs
               id="defs14"><path
                 id="SVGID_1_"
                 d="M214.479,51.494l-17.5-29.146c-0.968-1.608-3.298-2.93-5.179-2.93h-0.059L24.061,19.422        c-1.748,0-2.449,1.154-1.769,2.608l6.646,11.067c0.06,0.111,0.088,0.252,0.146,0.371l10.824,18.016        c0.969,1.617,0.969,4.251,0,5.861l-6.385,10.752c-0.062,0.088-0.153,0.168-0.22,0.26L22.413,86.489        c-0.97,1.607-0.222,2.93,1.653,2.93l167.681-0.004h0.059c1.882,0,4.212-1.312,5.179-2.93l6.675-11.104l10.823-18.028        c0.97-1.615,0.97-4.251,0-5.859L214.479,51.494L214.479,51.494z" /></defs><clipPath
               id="SVGID_2_"><use
                 xlink:href="#SVGID_1_"
                 overflow="visible"
                 id="use18" /></clipPath><g
               id="g16"
               clip-path="url(#SVGID_2_)"><path
                 id="path18"
                 fill="#E0E0E0"
                 d="M105.158,29.336c0.064-0.028,0.233,0.042,0.28,0c0.149-0.135,0.252-0.58,0.426-0.847        c0.236-0.363,0.49-0.377,0.562-0.705c0.063-0.266-0.252-0.985-0.133-1.55c0.039-0.224,0.274-0.327,0.418-0.56        c0.265-0.447,0.442-0.773,0.703-1.268c0.278-0.521,0.348-1.312,0.141-2.259c0.209-0.167,0.396-0.352,0.566-0.562        c-0.295-1.22-0.007-2.403,0.562-3.383c0.125-0.219,0.201-0.459,0.281-0.562c0.465-0.651,1.597-0.975,1.554-1.975        c-0.419-0.717-1.496-0.588-2.261-0.275c-0.125-0.253-0.338-0.418-0.422-0.712c0.11-0.407,0.668-0.361,0.562-0.983        c-0.201-0.403-0.64-0.528-0.981-0.844c-0.58-0.54-0.802-1.023-1.691-1.268c-0.264-0.075-0.77-0.159-0.98-0.141        c-0.285,0.014-0.738,0.461-1.271,0.562c-0.383,0.072-0.801-0.081-0.985,0c-0.56,0.247-0.821,1.014-1.407,1.264        c-0.478,0.211-0.762-0.204-1.128,0.288c-0.355-0.584-1.236-0.642-2.257-0.568c-0.067-1.852-1.674-2.175-2.957-2.818h-2.25        c-0.702,0.759-2.229,0.688-3.388,0.991c-0.407,0.244-0.354,0.955-0.704,1.268c-0.281-0.146-0.22-0.626-0.699-0.568        c-1.472,0.651-1.959,2.274-2.12,4.229c0.129,0.58,1.047,0.371,1.133,0.987c-0.232,0.755-1.023,0.951-1.836,1.126        c-0.703-0.048-0.509-0.999-1.406-0.847c-0.924,0.739,1.082,1.751-0.146,2.395c-0.681-0.336-1.021-0.979-0.696-1.967        c-0.492-0.62-1.14-0.229-2.117-0.288c-0.424,0.812,0.318,1.275,0.422,1.975c0.672,0.085,1.244,0.26,1.41,0.844        c0.44,0.072,0.498-0.252,0.981-0.133c0.55,1.129,2.854,1.723,4.229,1.12c0.174-0.398,0.174-0.872,0-1.263        c-0.826-0.616-2.312,0.288-2.53-0.849c0.788-0.463,1.176,0.561,2.25,0.28c0.34,0.407,0.813,0.465,1.409,0.28        c0.412-0.584,0.554-1.22,1.125-1.687c0.181-0.146,0.578-0.125,0.847-0.28c0.231-0.135,0.291-0.432,0.565-0.428        c0.209-0.4,0.256-0.963,0.56-1.267c1.11-0.115,1.578-0.864,2.541-1.125c0.155,0.405,0.252,0.872,0.278,1.409        c-0.688,0.667-2.207,0.51-3.1,0.982c0.358,1.169-0.371,2.603,0.426,3.382c1.164,0.268,1.988,0.012,2.535,0.848        c0.293,0.447,0.475,1.798,0.428,2.821c-0.024,0.403-0.274,0.828-0.289,1.268c-0.012,0.407,0.183,0.868,0.144,1.124        c-0.065,0.421-0.549,0.743-0.422,1.127c-0.058,0.576,0.601,0.435,0.705,0.846c-0.388,0.54-1.028,1.12-1.13,2.116        c-0.073,0.751,0.312,2.421,0.564,3.237c0.205,0.691,0.262,1.115,0.705,1.411c0.141,0.089,0.389,0.027,0.562,0.141        c0.367,0.234,0.537,0.761,0.988,0.566c0.674-0.438,0.812-1.264,1.269-1.975c0.062-0.104,0.058-0.312,0.144-0.419        c0.039-0.063,0.248-0.092,0.274-0.147c0.224-0.401,0.136-0.914,0.565-1.264c0.375-0.308,1.408-0.26,2.115-0.711        c0.545-0.342,0.834-1.097,1.549-1.404c0.524-0.23,1.392-0.149,1.976-0.423c0.062-0.036,0.092-0.261,0.144-0.28        c0.071-0.032,0.213,0.044,0.278,0C105.074,29.581,105.116,29.361,105.158,29.336L105.158,29.336z" /><path
                 id="path20"
                 fill="#E0E0E0"
                 d="M141.508,14.68c0.086,0.052,0.187,0.238,0.285,0.286c0.849,0.376,1.437,0.022,2.11-0.143        c0.263,0.355,0.263,0.963,0.847,0.987c0.479-0.179,0.812-0.511,0.987-0.987c-0.28-0.316-0.543-0.811-1.131-0.847        c-0.431-0.027-0.562,0.144-0.981,0.282c-0.459-0.62-0.979-1.182-1.976-1.27c-0.263-0.532-0.554-1.037-1.405-0.983        c-0.533,0.695-0.306,1.552,0.139,2.11C140.486,14.244,141.334,14.571,141.508,14.68L141.508,14.68z" /><path
                 id="path22"
                 fill="#E0E0E0"
                 d="M82.754,15.952h0.988c0.073,0.439,0.25,0.787,0.422,1.127        c0.391,0.103,0.43-0.32,0.563-0.568c0.577-1.062-0.158-1.391-0.849-1.83c0.039-0.592-0.408-0.715-0.565-1.122        C81.863,13.423,82.092,15.444,82.754,15.952z" /><path
                 id="path24"
                 fill="#E0E0E0"
                 d="M161.098,14.259c-0.389-0.943-2.411-0.544-3.096-0.143        C157.795,16.51,160.943,15.934,161.098,14.259z" /><path
                 id="path26"
                 fill="#E0E0E0"
                 d="M163.069,13.977c-0.047-0.284-0.51-0.338-0.981-0.141        C162.059,14.787,163.145,14.384,163.069,13.977z" /><path
                 id="path28"
                 fill="#E0E0E0"
                 d="M79.232,15.525c0.371-0.146,0.634-0.401,0.703-0.845c0.338-0.133,0.694-0.248,0.565-0.844        h-0.703c0.021,0.727-0.928,0.486-1.269,0.844C78.5,15.227,78.754,15.491,79.232,15.525z" /><path
                 id="path30"
                 fill="#E0E0E0"
                 d="M130.109,16.234c0.338,0.038,0.265-0.079,0.562-0.282c0.51-0.354,0.485-0.371,0.703-0.848        c0.119-0.249,0.385-0.336,0.28-0.561c-0.407-0.352-0.702,0.607-1.269,0.561c-0.289-0.181-0.252-0.682-0.846-0.561        C128.935,15.374,129.486,16.155,130.109,16.234z" /><path
                 id="path32"
                 fill="#E0E0E0"
                 d="M75.435,17.078c-0.106,1.043,0.438,1.438,0.84,1.971c1.3-0.32,3.106,0.308,3.386-0.845        c0.104-0.479-0.214-0.34-0.429-0.707c-0.142-0.236,0.037-0.724-0.418-0.699c-0.588-0.113-0.269,0.675-0.851,0.56        c-0.422-0.327-0.596-0.903-0.846-1.406c0.118-0.397,0.459-0.58,0.424-1.128c-0.604-0.428-1.039-0.261-1.549,0        c-0.558,0.284-1.558,0.6-1.558,1.128C74.648,16.454,75.269,16.54,75.435,17.078z" /><path
                 id="path34"
                 fill="#E0E0E0"
                 d="M128.269,16.653V15.81c-0.404-0.328-1.063-0.022-1.412,0.141        C126.984,16.563,127.59,17.005,128.269,16.653z" /><path
                 id="path36"
                 fill="#E0E0E0"
                 d="M183.928,17.219c-0.731-0.421-1.35,0.125-1.836,0.139        c-0.43,0.013-0.928-0.208-1.403-0.279c-0.324-0.048-0.634,0.035-0.987,0c-0.709-0.08-1.438-0.355-2.113-0.426        c-1.106-0.103-1.59,0.362-2.394,0.426c-0.17,0.21-0.183,0.578-0.429,0.707c-0.549-0.107-0.87,0.396-1.266,0.561        c-0.285,0.123-0.647,0.162-0.984,0.285c-0.314,0.104-0.564,0.386-0.991,0.274c-0.588-0.288-0.94-1.053-1.688-1.12        c-0.705-0.063-1.308,0.676-1.974,0.703c-0.229,0.008-0.358-0.079-0.567-0.143c-0.192-0.064-0.576-0.082-0.699-0.142        c-0.426-0.187-0.537-0.628-1.129-0.707c-0.428-0.048-0.813,0.225-1.268,0.288c-0.66,0.087-1.234-0.177-1.83,0.137        c-0.363,0.437,0.039,1.006,0,1.55c-0.515,0.24-1.056,0.455-1.693,0.568c-0.438,0.163-0.397,0.816-0.983,0.84        c-1.151-0.769-1.246-2.603-3.668-2.107c-0.259,0.396-0.259,1.049-0.843,1.122c-0.635,0.034-0.903-0.392-1.555-0.423        c-0.752-0.036-1.688,0.727-2.396,0c0.188-2.153-1.364-3.598-3.237-2.819c-0.689-0.202-1.013-0.771-1.832-0.842        c-0.017,0.219-0.359,0.109-0.281,0.423c-0.5,0.461,0.129,1.152,0,1.552c-0.213,0.638-0.746,0.711-1.547,0.846        c-0.688,1.113-2.429,1.544-1.836,3.519c-0.285,0.274-0.931,0.201-0.988,0.705c-0.323,0.147-0.287,0.649-0.274,1.123        c-0.638,0.266-0.974,0.826-1.694,0.991c-0.549-0.388-0.763-1.115-1.688-1.129c-0.134,0.576-0.462,1.979-0.427,2.535        c0.037,0.58,0.683,1.087,0.283,1.552c-0.859-0.165-1.34-0.309-2.252-0.142c-0.084,0.248,0.168,0.826-0.144,0.849        c-0.651,0.56-1.548,0.194-2.252,0.427c-0.058,0.01-0.218,0.24-0.289,0.276c-0.183,0.096-0.401,0.023-0.558,0.141        c-0.444,0.328-0.506,1.055-1.133,1.127c-0.272-0.336-0.187-1.035-0.847-0.983c-0.577,0.276,0.375,1.579-0.562,1.687        c-0.612-0.044-0.532-0.775-0.846-1.131c-1.099-0.584-2.22-1.16-3.664-1.404c-0.392-0.442-0.681-0.874-1.125-0.987        c-1.322-0.327-2.3,0.549-2.82,0.849c-0.399,0.227-0.61,0.25-0.846,0.427c-0.289,0.209-0.529,0.394-0.707,0.561        c-0.479,0.442-0.363,0.983-0.562,1.545c-0.082,0.236-0.422,0.505-0.563,0.845c-0.16,0.388-0.119,0.836-0.281,1.13        c-0.026,0.046-0.239,0.094-0.284,0.14c-0.099,0.113-0.041,0.306-0.138,0.423c-0.728,0.906-1.539,1.035-2.112,1.834        c0.045,1.128,0.118,2.227,0.698,2.818c0.912,0.207,0.955-0.461,1.69-0.421c0.197,0.272,0.138,0.803,0.287,1.124        c-0.209-0.204-0.924-0.204-1.135,0c-0.317,0.599,0.084,1.079,0,1.834c-0.354,0.252-0.779,0.439-1.265,0.561        c-0.373,0.379-0.563,0.943-1.129,1.126c-0.06-0.699-1.326-2.03-1.832-3.097c-0.144-0.312,0.024-0.72-0.14-0.985        c-0.272-0.455-0.924-0.489-1.271-0.286c-0.396,0.268-0.26,1.051-0.278,1.694c-0.97,0.296-1.828,1.295-1.412,2.531        c0.817,0.166,1.028-0.284,1.556-0.42c0.2-0.452,0.059-1.251,0.7-1.267c0.272,0.582-0.493,1.702,0,2.536        c0.476,0.09,1.312-0.179,1.554,0.142c-0.271,0.482-0.949,0.562-1.41,0.846c0.027,0.934,1.363,1.156,1.127,2.116        c-0.321,1.343-1.985,0.216-3.098,0.842c-0.353,0.284-0.078,0.791-0.144,1.27c-0.103,0.771-0.462,1.412-0.144,1.969        c0.481,0.544,1.172,0.3,1.271,0.987c0.11,0.757-0.769,0.936-1.412,1.694c-0.295,0.352-0.33,1.417-0.416,1.548        c-0.285,0.425-1,0.636-1.41,0.986c-0.485,0.412-0.803,0.976-1.125,1.556c-0.215,0.371-0.521,0.888-0.569,1.263        c-0.078,0.598,0.201,1.536,0.144,2.258c-0.022,0.25-0.248,0.494-0.274,0.703c-0.259,1.52,0.645,1.776,1.262,2.541        c0.229,0.282,0.259,0.444,0.424,0.7c0.328,0.498,0.548,0.67,0.986,0.983c0.42,0.302,0.59,0.49,0.981,0.711        c0.957,0.519,1.146,0.005,2.256,0c0.396-0.006,0.817,0.183,1.132,0.136c0.305-0.041,0.629-0.31,0.985-0.424        c1.401-0.453,1.646-0.192,2.537,0.706c0.635-0.021,1.256-0.03,1.407,0.425c0.354,0.676-0.321,1.418-0.146,2.254        c0.156,0.703,0.937,1.082,1.271,1.69c0.181,0.328,0.451,0.908,0.568,1.406c0.086,0.42,0.209,1.264,0.135,1.691        c-0.053,0.326-0.442,0.471-0.562,0.701c-0.077,0.154-0.108,0.465-0.142,0.566c-0.358,1.16,0.043,1.975,0.423,2.819        c0.182,0.41,0.461,0.821,0.563,1.269c0.129,0.567,0.059,1.069,0.139,1.547c0.14,0.787,0.871,1.365,1.129,2.117        c0.25,0.729-0.012,1.567,0.707,2.108c1.017-0.146,2.138-0.114,2.955-0.278c0.17-0.037,0.968-0.408,0.99-0.427        c0.403-0.385,0.774-0.676,1.271-1.269c0.646-0.768,1.246-1.491,1.403-2.532c0.508-0.464,0.935-0.382,1.131-0.988        c0.177-0.553-0.192-1.323,0-1.831c0.33-0.867,1.974-1.146,2.392-1.83c0.414-0.656,0.347-2.304,0.144-2.814        c-0.166-0.418-0.379-0.859-0.418-1.273c-0.078-0.703,0.146-1.152,0.274-1.41c0.315-0.615,0.394-0.781,0.847-1.264        c0.332-0.354,0.728-0.814,0.983-0.986c0.815-0.543,1.783-1.375,2.121-2.109c0.021-0.057,0.248-0.086,0.274-0.143        c0.438-0.775,0.877-1.738,0.99-2.682c-0.871-0.924-3.027,0.967-3.525-0.424c0.255-0.44,0.953-0.475,1.552-0.701        c0.635-0.246,1.479-0.562,1.976-0.846c0.141-0.084,0.176-0.219,0.276-0.281c0.549-0.346,1.084-0.402,1.554-0.707        c0.073-0.047,0.196-0.219,0.28-0.283c0.431-0.348,0.679-0.611,0.985-1.127c0.261-0.43,0.482-0.777,0.429-1.127        c-0.14-0.861-1.14-0.479-1.272-1.547c1.438,0.236,2.521,0.268,4.088,0.141c0.733,0.627,1.526,1.199,1.971,2.111        c0.523,0.047,0.97,0.162,1.271,0.422c0.053,1.256,0.659,2.117,0.987,2.82c0.09,0.205,0.06,0.354,0.138,0.564        c0.071,0.18,0.215,0.274,0.28,0.42c0.317,0.655,0.554,1.285,0.987,1.83c0.525,0.104,0.607-0.24,1.13-0.14        c-0.017,0.674,0.174,1.144,0.707,1.271c0.204-0.131,0.688-0.707,0.274-0.984c0.078-0.643-0.75-0.377-0.703-0.985        c-0.142-0.497,0.14-1.401,0.14-1.552c0-0.047-0.166-0.311-0.14-0.564c0.063-0.512,1.263-1.545,1.69-1.973        c1.022-1.021,1.521-1.719,2.964-1.688c0.771,0.77,1.465,1.629,1.827,2.811c0.427,0.201,0.509-0.062,1.13,0        c0.461,0.716,0.771,1.57,0.985,2.539c0.545-0.061,0.39-0.836,1.125-0.707c1.342,0.468,0.952,1.562,2.118,1.555        c0.406-0.008,0.836-0.566,0.982-0.705c0.375-0.352,0.655-0.588,0.707-0.992c0.051-0.426-0.322-1.438-0.427-1.543        c-0.062-0.063-0.08-0.227-0.144-0.283c-0.254-0.25-0.637-0.319-0.842-0.563c-0.728-0.853-0.285-1.975,0.842-1.831        c0.412,0.309-0.459,1.276,0.429,1.27c0.618-0.037,0.271-1.041,0.56-1.406c1.135-0.482,2.151-0.74,2.819-1.408        c0.644-0.646,0.635-0.893,0.985-1.833c0.33-0.872,0.476-1.136,0.277-1.973c-0.056-0.256-0.074-0.701-0.14-0.85        c-0.119-0.312-0.539-0.612-0.707-0.845c-0.129-0.185-0.197-0.443-0.276-0.562c-0.22-0.315-0.271-0.165-0.283-0.56        c-0.012-0.566,0.979-1.027,0.562-1.409c-0.58-0.407-1.396,0.278-1.687-0.425c0-0.705,0.447-0.962,0.846-1.27        c0.453,0.513,0.787,0.596,1.688,0.426c0.315,0.671,0.903,1.157,1.274,1.829c0.192,0.361,0.104,0.896,0.563,1.128        c0.416-0.051,0.713-0.224,0.979-0.423c0.183-1.537-0.873-1.848-1.271-2.818c0.444-0.549,0.479-1.492,0.846-2.114        c0.343-0.229,0.91-0.225,1.271-0.425c0.39-0.511,0.736-1.304,0.988-2.109c0.217-0.72,0.569-1.924,0.56-2.539        c-0.002-0.457-0.527-0.866-0.136-1.27c0.166,0.729,0.379,1.408,0.985,1.69c1.078-1.484-0.959-2.551-1.135-4.082        c-1.442-0.401-3.213,0.023-3.521-1.131c-0.022-0.117,0.226-1.204,0.283-1.41c0.019-0.05,0.266-0.205,0.28-0.28        c0.125-0.469,0.065-1.381,0.285-1.692c0.422-0.612,1.16-0.469,1.828-0.703c0.51-0.175,0.741-0.601,1.127-0.562        c0.614,0.028,0.95,0.495,1.555,0.144c0.524-0.593-0.313-2.555,0.707-2.962c0.703-0.142,0.687,0.438,1.265,0.423        c0.366-0.067,0.476-0.774,0.847-0.423c-0.314,0.884-0.101,1.877-0.281,2.818c-0.082,0.439-0.371,0.843-0.422,1.266        c-0.226,1.84,0.524,2.566,1.125,3.526c0.426,0.683,0.772,1.56,1.409,1.831c0.703-0.548,0.402-1.859,0.563-2.676        c0.044-0.219,0.279-0.359,0.279-0.566c0.008-0.214-0.231-0.6-0.279-0.985c-0.055-0.423,0.066-0.926,0-1.13        c-0.157-0.455-0.795-0.767-0.987-1.266c-0.244-0.622,0.067-1.061-0.278-1.552c0.633-0.592,1.299-1.14,2.397-1.267        c0.211-0.912,0.45-1.796,0.84-2.535c0.256-0.355,0.959-0.257,0.99-0.851c-0.173-1.064-1.306-1.195-1.552-2.107        c-0.047-0.179,0.142-0.596,0.14-0.847c0-0.387-0.187-0.544-0.14-0.987c0.483-0.625,1.312-0.073,2.113-0.417        c0.336-0.594-0.228-0.83-0.285-1.41C184.418,18.037,184.213,17.587,183.928,17.219L183.928,17.219z M127.283,31.872        c0.465,0.146,1.151,0.071,1.551,0.283c0.01,0.76-0.885,0.62-1.551,0.704C127.078,32.671,127.078,32.067,127.283,31.872z         M127.422,45.678c0.724-0.111,0.574,0.652,1.121,0.712c0.649,0.027,0.649-0.58,0.851-0.991h0.428        c-0.079,1.537,1.589,1.326,1.972,2.397c-0.488,1.184-1.554,0.292-2.397,0.141c-0.959-0.173-1.687,0.32-2.813,0.424        C125.76,47.595,126.519,45.987,127.422,45.678z M120.658,39.338c-0.048-0.947,0.293-1.347,0.562-2.249        c0.021-0.629-0.573-0.854-0.562-1.412c0.012-0.805,0.655-1.141,1.268-1.552c0.117-0.584,0.104-1.301,0.563-1.551        c0.229-0.036,0.244,0.135,0.423,0.143c0.157,1.053-0.724,1.061-0.986,1.69c-0.035,1.357,0.322,2.312,1.271,2.682        c-0.073,1.273-1.219,1.78-0.704,3.238c-0.416,0.302-0.791-0.052-1.27,0c-0.694,0.078-1.434,0.835-1.975,0.142        C119.41,39.783,120.324,39.85,120.658,39.338z M126.859,53.711c-0.631-0.028-1.121-0.259-1.688-0.419        c-0.592-0.173-1.301-0.476-1.553-0.426c-0.625,0.121-0.628,0.705-1.125,1.129c-0.541-0.063-1.027-0.203-1.41-0.564        c-0.449-0.436-1.511-0.453-2.256-0.983c0.084-0.786-0.064-1.347-0.418-1.694c-1.183,0.065-2.113-0.024-3.104,0.141        c-1.043,0.179-2.03,1.012-3.102,0.562c0.485-0.6,1.215-0.407,1.688-0.987c0.22-0.254,0.13-0.799,0.285-1.122        c0.191-0.378,0.601-0.545,0.847-0.847c0.302-0.369,0.34-0.784,0.707-0.985c0.528-0.271,1.571-0.023,1.832-0.566        c1.047,0.551,1.604,1.59,2.815,1.977c0.254,0.261,0.379,0.65,0.703,0.843c1.557-1.25-1.095-1.855-1.41-2.956        c0.022-0.167,0.258-0.123,0.424-0.147c0.435,0.695,1.418,0.843,1.974,1.411c-0.002,0.331,0.239,0.419,0.14,0.85        c0.494,0.221,0.826,1.941,1.553,1.969c1.189,0.044,0.558-1.041,0.703-1.835c0.371-0.013,0.494-0.211,0.707,0        c0.131,0.143,0.051,0.552,0.139,0.709c0.107,0.177,0.177,0.354,0.287,0.566c0.213,0.423,0.396,0.467,0.703,0.844        c1.453-0.225,2.201,0.483,3.381,0.142c0.238,0.818-0.149,1.676-0.562,2.252C128.281,53.4,127.672,53.755,126.859,53.711        L126.859,53.711z M133.482,61.888c-0.338-0.005-0.593-0.084-0.847-0.281c-0.473-0.367-0.473-0.869-0.844-1.41        c-0.154-0.217-0.479-0.391-0.562-0.562c-0.146-0.292-0.138-0.783-0.289-1.13c-0.17-0.385-0.494-0.62-0.703-0.983        c-0.062-0.104,0.056-0.312,0-0.428c-0.096-0.189-0.728-0.576-0.562-1.265h0.425c0.286,0.336,0.401,0.717,0.7,1.131        c0.236,0.328,0.672,0.601,0.847,0.983c0.097,0.213,0.021,0.494,0.144,0.703C132.404,59.669,133.736,60.534,133.482,61.888        L133.482,61.888z M134.324,45.968c0.52-0.473,0.862-1.114,1.979-0.993c0.39,0.662-0.481,0.686-0.428,1.415        c-0.015,0.546,0.604,0.818,0.846,1.268c0.164,0.292,0.164,0.699,0.285,0.982c0.256,0.622,0.908,1.19,0.562,1.83        c-0.668,0.421-1.427-0.119-1.83-0.419C136.158,47.795,134.492,47.628,134.324,45.968L134.324,45.968z M138.133,57.091        c-0.711-0.002-1.504-1.5-1.975-1.967c-0.162-0.208-0.162-0.357,0-0.564h0.42c0.473,0.983,1.602,1.312,2.682,1.688        C138.881,56.757,138.592,57.101,138.133,57.091z" /><path
                 id="path38"
                 fill="#E0E0E0"
                 d="M162.229,16.935c0.082-0.504-0.42-0.431-0.847-0.425        C161.19,17.145,161.95,17.198,162.229,16.935z" /><path
                 id="path40"
                 fill="#E0E0E0"
                 d="M118.828,22.011c0.926-0.062,0.528-1.442,1.27-1.695c0.186,0.38,0.304,0.825,0.986,0.708        c0.528-0.948-0.877-1.063-0.847-1.975c0.767-0.221,1.572-0.396,1.554-1.407c-0.383-0.514-1.349-0.44-2.256-0.423        c-0.382,0.274-0.644,0.674-1.125,0.847c-0.341,0.185-0.978,0.056-1.271,0.28c-0.454,1.103,0.502,1.781,0.984,2.394        C118.144,21.385,118.467,21.719,118.828,22.011z" /><path
                 id="path42"
                 fill="#E0E0E0"
                 d="M97.41,70.901c-0.392-0.287-0.877-0.744-1.127-0.846c-0.64-0.244-1.466-0.08-2.117-0.275        c-0.291-0.096-0.537-0.434-0.84-0.562c-0.375-0.166-0.734-0.057-0.988-0.143c-0.894-0.318-0.812-0.869-1.127-1.553        c-0.151-0.328-0.365-0.783-0.565-0.986c-0.052-0.057-0.604-0.449-0.847-0.562c-0.485-0.224-0.823-0.078-1.407-0.144        c-0.604-0.062-1.294-1.009-1.688-1.269c-0.349-0.229-0.646-0.765-0.845-0.847c-0.687-0.263-1.688,0.097-2.256,0        c-0.634-0.104-0.834-0.491-1.271-0.563c-1.104-0.186-1.859,0.043-2.256,0.279c-0.402,0.252-0.582,0.762-1.265,0.988        c-0.235,0.078-0.545-0.088-0.707,0.143l-0.108,0.107c-0.068-0.018-0.14-0.021-0.209-0.004l-0.104-0.104        c-1.011-0.147-1.521-0.429-1.69-1.27c-0.107-0.537,0.459-1.146,0.143-1.689c-0.287-0.606-1.592-0.201-1.975-0.707        c-0.334-0.748,0.639-1.301,0.428-2.396c-1.461-0.586-1.461,0.729-2.117,1.129c-1.567,0.955-2.77-0.567-2.536-2.392        c0.041-0.344,0.493-2.028,0.562-2.116c0.235-0.313,1.459-0.83,1.694-0.849c0.377-0.015,0.819,0.34,1.263,0.283        c0.377-0.137,0.647-0.488,1.135-0.562c0.758-0.115,1.644,0.256,2.109,0.562c0.15,0.832,0.15,1.822,1.129,1.83        c0.78-0.93-0.357-1.82,0-2.958c0.073-0.242,0.338-0.375,0.561-0.564c0.466-0.393,0.826-0.665,1.271-0.985        c0.274-0.2,0.604-0.288,0.698-0.425c0.319-0.447,0.205-1.091,0.427-1.55c0.135-0.28,0.479-0.544,0.702-0.848        c0.584-0.759,0.851-1.079,1.828-1.264c0.263-0.807,0.621-1.623,1.554-1.69c0.471-0.036,0.711,0.236,1.271,0.284        c0.646-0.439,1.688-0.478,1.968-1.268c-0.72-0.133-1.05-0.144-1.401-0.707c-0.113-0.179,0.073-0.656,0-0.987        c-0.099-0.416-0.767-0.453-0.285-0.703c0.721,0.158,1.096,0.308,1.688,0.137c0.494-0.133,1.192-0.536,1.558-0.282        c-0.107,0.604-0.66,0.757-0.566,1.554c0.66,0.321,1.359,0.613,2.396,0.566c0.479-1.047-0.56-1.532-0.847-2.263        c0.401-0.896,0.319-1.644,0-2.108c-0.099-0.143-0.2-0.471-0.278-0.566c-0.336-0.383-0.873-0.477-1.125-0.98        c-0.263-0.524-0.183-1.111-0.285-1.554c-0.104-0.463-0.174-0.864-0.424-1.41c-0.998-0.157-0.742,0.951-1.828,0.707        c-0.398-0.43-0.209-0.9-0.146-1.552c-0.669-0.874-1.53-2.176-3.097-1.692c-0.383,0.507-0.11,1.097-0.281,1.692        c-0.125,0.445-0.521,0.78-0.562,1.271c-0.049,0.484,0.295,1.083,0.137,1.548c-0.196,0.6-1.184,0.721-1.549,1.406        c-0.422,0.794,0.279,1.251-0.563,1.831c-0.776-0.152-0.188-1.687-0.563-2.248c-0.138-0.263-0.465-0.161-0.703-0.284        c-0.688-0.362-1.246-1.17-1.832-1.554c-0.096-0.063-0.187-0.084-0.281-0.145c-0.549-0.319-0.653-0.54-0.844-1.122        c-0.492-1.504,0.652-2.199,1.547-2.96c0.699-0.59,1.418-1.281,2.396-1.264c0.379,0.134,0.352,0.682,0.707,0.845        c0.678-0.207,1.116-0.269,1.688-0.288c0.123-0.914-0.842-1.354-0.561-1.967c0.859-0.415,1.43-0.703,1.688-1.554        c0.199-0.64,0.474-1.277,0.849-1.69c0.966-0.169,1.218,0.378,1.41,0.985c-0.009,0.608-0.746,0.477-0.567,1.275        c0.623,0.181,1.02-0.667,1.271,0c-0.096,0.983-0.881,1.279-1.405,1.828c-0.558,0.012-1.239-0.109-1.129,0.565        c-0.06,0.757,1.183,0.225,1.554,0.557c0.301,0.319,0.325,1.051,0.696,1.412c0.267,0.253,0.966,0.578,1.271,0.561        c0.262-0.008,1.008-0.449,1.127-0.561c0.635-0.572,0.074-1.452-0.146-2.257c0.53-0.014,0.433,0.608,1.134,0.426        c0.614-0.384,0.971-0.592,0.985-1.129c0.006-0.363-0.44-0.667-0.705-0.985c-0.321-0.383-0.664-0.625-0.705-0.987        c0.056-0.556,0.312-0.836,0.278-1.268c-0.073-1.074-1.373-1.622-1.832-2.682c-0.191-0.455-0.303-0.888-0.273-1.543        c-0.429-0.624-1.367-0.396-2.121-0.564c-0.285-0.067-0.502-0.225-0.703-0.284c-1.762-0.564-2.82,1.416-2.674,3.242        c0.256,0.409,0.746,0.6,0.7,1.268c-0.024,0.411-0.407,1.015-0.981,0.987c-0.193-0.576-0.873-1.099-0.99-1.828        c-0.028-0.21,0.127-0.609,0.145-0.85c0.038-0.604-0.093-1.26,0.141-1.832c0.764-0.507,2.25-0.294,1.976-1.834        c-0.562-0.492-1.373-0.446-1.976,0c-0.647-1.028-1.375-0.52-1.975,0c-0.688,0.603-0.798,0.716-0.561,1.411        c0.041,0.129,0.041,0.401,0.143,0.566c0.182,0.325,0.672,0.396,0.702,0.844c0.021,0.278-0.084,0.399-0.144,0.564        c-0.271,0.797-0.666,0.797-1.41,1.13c-0.268,0.485-0.078,1.027-0.703,1.264c-0.688,0.256-1.721-0.207-1.688-0.989        c1.047,0.021,1.854-0.544,1.971-1.266c0.045-0.258-0.194-0.338-0.281-0.56c-0.264-0.71-0.047-1.681,0.141-2.118        c0.229-0.517,0.896-0.789,0.846-1.55c-0.889-0.552-1.397,0.636-2.252,0.561c-0.965-0.077-1.283-0.922-1.404-2.255        c-0.905-0.717-1.896-1.093-2.545-0.417c-0.692,0.723-2.276,1.911-1.686,2.958c0.434,0.419,1.387-0.144,1.686,0.141        c-0.225,0.535,0.102,1.115,0,1.55c-0.03,0.157-0.336,0.388-0.418,0.564c-0.135,0.276,0.031,0.799-0.426,0.707        c-0.66-0.044-0.83-0.582-1.127-0.987c-0.986-0.141-1.617-0.636-2.113-1.271c-1.379-0.012-2.598,0.129-3.801,0.284        c-0.297-0.272-0.537-0.592-0.709-0.987c-0.506-0.052-0.627-0.596-0.986-0.847c-0.289-0.2-0.854-0.296-1.268-0.56        c-0.06-0.044-0.076-0.232-0.145-0.288c-0.111-0.088-0.312-0.06-0.424-0.14c-0.064-0.043-0.064-0.229-0.137-0.279        c-0.131-0.098-0.312-0.04-0.422-0.142c-0.289-0.262-0.357-0.626-0.562-0.846c-0.323-0.336-0.514-0.441-0.984-0.561        c-0.822-0.213-1.516,0.125-1.977,0.28c-0.27,0.091-0.633,0.043-0.846,0.139c-0.541,0.24-0.943,0.763-1.551,0.987        c-0.494,0.181-1.064-0.1-1.408,0.421c-0.146,1.039,0.436,2.098,0,2.958c-0.465,0.056-0.689-0.548-1.271-0.56        c-0.121-0.004-0.491,0.192-0.705,0.279c-0.866,0.364-0.817,0.912-0.7,1.834c0.254,0.549,1.422,0.175,1.549,0.845        c-0.248,0.965-1.338,0.425-1.97,0.707c-0.104,0.044-0.343,0.363-0.565,0.56c-0.252,0.223-0.611,0.412-0.707,0.564        c-0.244,0.415-0.465,1.343-0.418,1.69c0.078,0.64,0.984,0.807,0.842,1.834c0.359,0.256,0.968,0.256,0.984,0.842        c-0.443,1.29-2.097,1.381-2.814,2.396c1.564,0.016,2.214-0.88,3.382-1.264c0.562-0.144,0.422,0.415,0.987,0.276        c0.834-0.432,0.433-1.884,1.265-2.112c0.776,0.599,2.192,0.134,2.817-0.286c0.285,0.179,0.566,0.455,0.99,0.712        c0.326,0.19,0.842,0.3,1.127,0.565c0.158,0.146,0.442,0.856,0.563,0.985c0.55,0.566,0.377,1.206,0.558,2.11        c0.041,0.175,0.076,0.315,0.145,0.563c0.062,0.225,0.104,0.593,0.143,0.704c0.15,0.359,0.584,0.644,0.702,0.982        c0.069,0.203-0.056,0.593,0,0.851c0.054,0.209,0.255,0.461,0.285,0.561c0.247,0.836-0.009,1.299-0.144,1.975        c0.225,0.607,0.758,0.928,0.844,1.554c0.037,0.224-0.105,0.448-0.137,0.697c-0.096,0.842-0.127,0.932-0.279,1.414        c-0.241,0.757-0.578,1.26-0.705,1.827c-0.191,0.843-0.18,2.326,0,2.962c0.141,0.519,0.302,1.344,0.421,1.695        c0.286,0.828,0.959,0.838,1.409,1.547c0.205,0.326,0.199,0.889,0.422,1.411c0.277,0.629,0.964,1.022,0.703,1.973        c0.623,0.456,0.725,1.437,1.554,1.69c0.134-0.655-0.548-1.229-0.147-1.69c0.529,0.146,0.514,0.705,0.707,0.979        c0.088,0.121,0.342,0.166,0.428,0.287c0.095,0.125,0.045,0.287,0.14,0.424c0.274,0.396,0.741,0.615,0.847,1.125        c0.055,0.263-0.144,0.816,0,1.128c0.354,0.784,2.735,1.987,3.664,2.116c0.422,0.056,1.012-0.127,1.405,0        c0.371,0.111,0.677,0.703,1.274,0.982c0.537,0.258,1.342,0.195,1.688,0.417c0.645,0.429,0.75,1.226,1.131,1.554        c0.217,0.196,0.549,0.271,0.844,0.426c0.781,0.402,1.154,0.755,1.834,0h0.137c0.307,0.591,0.812,1.023,0.709,1.974        c-0.061,0.483-0.411,0.713-0.709,1.131c-0.217,0.302-0.695,0.709-0.846,1.124c-0.217,0.624,0.084,0.827,0,1.407        c-0.059,0.403-0.338,0.703-0.281,0.985c0.076,0.381,0.791,1.019,1.127,1.552c0.382,0.608,0.754,1.435,0.988,1.832        c0.209,0.362,0.412,0.952,0.563,1.127c0.813,0.932,2.114,0.959,2.534,2.11c0.566,1.562-0.059,4.566,0,6.062        c0.025,0.521,0.18,1.051,0.145,1.548c-0.054,0.683-0.392,1.296-0.426,1.976c-0.009,0.256,0.109,0.601,0.145,0.986        c0.037,0.449-0.062,0.98,0,1.406c0.049,0.383,0.254,0.611,0.281,0.99c0.074,1.299-0.254,2.683,0,3.803        c0.105,0.482,0.492,0.979,0.701,1.41c0.25,0.494,0.443,0.972,0.709,1.406c0.967,0.332,1.95,1.719,3.236,0.844        c0.109-0.482-0.243-0.754-0.424-0.986c-0.258-0.337-0.516-0.439-0.705-0.844c-0.125-0.266-0.312-0.641-0.275-1.125        c0.034-0.662,0.75-1.131,0.702-1.834c-0.039-0.531-0.61-0.777-0.567-1.268c0.463-0.715,0.903-1.445,0.848-2.679        c0.686-0.065,0.59-0.915,0.988-1.269c0.578-0.217,1.291-0.301,1.688-0.702c0.168-0.396,0.159-0.978,0.146-1.556        c0.334-0.174,0.852-0.18,1.125-0.42c0.518-0.41,0.518-1.051,0.846-1.549c0.172-0.268,0.537-0.459,0.705-0.709        c0.197-0.285,0.463-0.705,0.566-0.979c0.271-0.769-0.088-1.123,0.273-1.692c0.137-0.213,0.436-0.229,0.568-0.281        c0.043-0.021,0.086-0.25,0.139-0.283c0.123-0.076,0.32-0.084,0.423-0.141c0.166-0.092,0.259-0.213,0.425-0.283        c0.252-0.101,0.762-0.013,1.125-0.279c0.754-0.551,1.159-2.117,1.271-3.381c0.023-0.277-0.104-0.82,0-1.135        c0.086-0.262,0.572-0.767,0.844-1.121c0.346-0.467,0.736-0.715,0.844-1.271C98.619,71.468,98.078,71.405,97.41,70.901z" /><path
                 id="path44"
                 fill="#E0E0E0"
                 d="M134.048,27.223c-0.162-0.899-0.78-1.12-0.846-1.97c-0.023-0.305,0.194-0.608,0.28-0.985        c0.097-0.428,0.017-0.831,0.146-1.131c0.039-0.102,0.315-0.262,0.418-0.423c0.14-0.229,0.166-0.553,0.277-0.703        c0.52-0.672,1.543-1.02,1.551-1.828c-0.117-0.304-0.342-0.502-0.845-0.431c-0.228,0.354-0.42,0.552-0.846,0.848        c-0.729,0.513-1.069,0.491-1.55,1.268c-0.473,0.767-0.418,1.357-0.563,2.541c-0.09,0.751-0.344,1.611-0.278,1.827        C131.995,26.911,133.147,27.523,134.048,27.223L134.048,27.223z" /><path
                 id="path46"
                 fill="#E0E0E0"
                 d="M108.548,32.156c-1.071-0.264-2.489-0.008-3.391,0c-0.162,0.809,0.061,1.854,0.846,2.114        C107.29,34.701,109.374,33.35,108.548,32.156z" /><path
                 id="path48"
                 fill="#E0E0E0"
                 d="M175.328,41.453c-0.021,0.308,0.116,0.446,0.426,0.427        C175.779,41.573,175.637,41.429,175.328,41.453z" /><path
                 id="path50"
                 fill="#E0E0E0"
                 d="M175.758,45.398c0.851-0.322,1.802-0.545,1.974-1.548        c-0.608-0.28-1.147-0.636-1.974-0.703C175.797,43.956,175.139,44.858,175.758,45.398z" /><path
                 id="path52"
                 fill="#E0E0E0"
                 d="M175.199,48.64c-0.259,0.316-0.414,0.648-0.712,0.847        c-0.729,0.304-1.631,0.78-1.829,1.552c-0.143,0.556-0.345,1.208,0.562,1.41c0.343-0.271,0.257-0.968,0.707-1.128        c0.601-0.136,1.074-0.463,1.552-0.706c0.549-0.279,1.06-0.504,1.551-0.846c-0.088-1.605,0.423-3.801-1.127-3.947        c-0.2,0.676,0.168,1.379,0,1.975C175.793,48.156,175.402,48.384,175.199,48.64L175.199,48.64z" /><path
                 id="path54"
                 fill="#E0E0E0"
                 d="M117.699,48.64c-0.212,0.215-0.248,0.966,0.28,0.847        C118.199,49.271,118.234,48.518,117.699,48.64z" /><path
                 id="path56"
                 fill="#E0E0E0"
                 d="M119.958,50.753c0.478,0.062,0.797-0.044,0.699-0.562        C120.247,50.205,119.864,50.242,119.958,50.753z" /><path
                 id="path58"
                 fill="#E0E0E0"
                 d="M169.128,56.39c-0.201,0.205-0.201,0.928,0,1.129c0.603-0.02,0.623-0.69,0.426-1.129        H169.128z" /><path
                 id="path60"
                 fill="#E0E0E0"
                 d="M80.076,59.208c-0.138-0.754-0.916-0.867-1.689-0.98v0.103        c-0.19-0.08-0.375-0.164-0.561-0.226v-0.162c0.02-0.231-0.869-0.231-0.847,0c0.293,0.078,0.397,0.353,0.847,0.285V58.11        l0.561,0.223v0.17C78.66,58.985,79.312,59.685,80.076,59.208z" /><path
                 id="path62"
                 fill="#E0E0E0"
                 d="M80.922,60.056c0.554,0.402,1.5,0.271,1.832-0.283        C82.59,59.089,80.697,58.837,80.922,60.056z" /><path
                 id="path64"
                 fill="#E0E0E0"
                 d="M170.118,59.772c-1.513-0.051-0.718,2.322-0.281,2.82c0.406,0.012,0.922-0.08,1.131,0.133        c-0.545,0.481-0.073,1.198,0,1.696c0.056,0.396-0.051,0.761,0,0.845c0.158,0.311,0.902,0.768,1.123,0.707        c0.861-0.22,0.619-1.65-0.144-2.109c0.022-0.352,0.022-0.688-0.139-0.85c-0.453-0.488-1.147-0.785-1.406-1.554        C170.218,60.931,170.617,60.247,170.118,59.772L170.118,59.772z" /><path
                 id="path66"
                 fill="#E0E0E0"
                 d="M166.739,72.878c0.052-0.594-0.604-0.934-0.983-0.982        c-0.397-0.061-0.754,0.213-1.125,0.144c-0.201-0.05-0.553-0.224-0.707-0.289c-0.256-0.103-0.639-0.131-0.703-0.422        c0.004-0.464,0.238-0.701,0.14-1.271c-0.498-0.466-0.767-0.584-0.983-1.125c-0.289-0.699-0.152-2.172-0.422-2.674        c-0.244-0.457-0.972-0.623-1.271-0.99c-0.157-0.19-0.191-0.567-0.278-0.703c-0.172-0.272-0.263-0.262-0.424-0.562        c-0.037-0.113-0.117-0.17-0.28-0.141c-0.65,1.377,1.357,1.863,0.704,3.242c-0.729-0.162-0.872-0.918-1.831-0.848        c-0.304,0.73,0.604,1.153,0.984,1.688c0.043,0.062-0.036,0.213,0,0.279c0.018,0.049,0.244,0.092,0.279,0.139        c0.043,0.066-0.031,0.219,0,0.287c0.024,0.051,0.25,0.084,0.281,0.145c0.213,0.367,0.396,1.1,0.562,1.264        c0.474,0.494,1.091,1.113,1.554,1.41c0.181,0.123,0.5,0.139,0.707,0.279c0.375,0.277,0.491,0.707,0.845,0.848        c0.157,0.064,0.612-0.072,0.98,0c0.261,0.053,0.492,0.26,0.705,0.283C165.927,72.931,166.285,72.837,166.739,72.878z" /><path
                 id="path68"
                 fill="#E0E0E0"
                 d="M167.868,65.69c-0.966,0.963-1.886,1.971-3.238,2.535        c-0.476,1.727,1.438,2.824,3.097,2.397c0.305-0.731,0.983-1.552,1.129-2.263c0.071-0.354-0.168-0.717-0.144-1.121        c0.029-0.454,0.416-0.657,0.281-1.131C168.67,65.923,168.527,65.548,167.868,65.69L167.868,65.69z" /><path
                 id="path70"
                 fill="#E0E0E0"
                 d="M169.559,69.075c-0.521,0.395-0.548,1.533-0.138,2.111h1.404        c0.146-0.441-0.089-1.18,0-1.971C170.6,68.978,169.997,69.103,169.559,69.075L169.559,69.075z" /><path
                 id="path72"
                 fill="#E0E0E0"
                 d="M179.699,70.058c-0.703-0.246-1.419-0.473-1.974-0.418        c-0.369,0.027-0.703,0.348-1.123,0.275c-0.274-0.246-0.406-0.633-0.707-0.842c-0.377,0-0.812-0.057-0.985,0.144        c0.135,0.597,0.286,1.067,0.702,1.407c0.16,0.129,0.488,0.053,0.701,0.137c0.226,0.096,0.383,0.338,0.567,0.428        c0.258,0.127,0.494,0.015,0.703,0.14c0.459,0.274,0.397,0.877,0.563,1.414c0.688,0.159,1.09,0.644,1.828,0.56        c0.515-0.056,0.709-0.63,1.271-0.56c0.746,0.237,0.805,1.161,1.979,0.981c0.221-0.688-0.942-1.094-0.851-2.113        C181.556,71.007,180.839,70.47,179.699,70.058z" /><path
                 id="path74"
                 fill="#E0E0E0"
                 d="M182.809,79.921c-0.134-0.232-0.146-0.65-0.281-0.844        c-0.31-0.436-0.748-0.619-0.987-1.131c-0.435-0.898-0.392-1.918-0.845-2.393c-0.323-0.336-0.312-0.938-0.847-0.986        c-0.812,0.457-0.297,2.244-1.129,2.678c-0.877-0.158-1.51-0.559-1.83-1.27c0.123-0.345,0.328-0.609,0.277-1.125        c-0.804-0.402-1.642-0.697-2.396-0.422c-0.733,0.264-0.772,1.274-1.552,1.405c-0.309-0.11-0.545-0.301-0.981-0.28        c-0.709,0.471-1.067,1.28-1.976,1.549c-0.45,2.178-3.271,1.158-4.227,2.678c-0.349,0.553-0.437,1.584-0.425,2.256        c0.021,0.951,0.485,1.902,0.425,2.961c-0.031,0.484-0.443,0.963-0.281,1.547c0.201,0.082,0.344,0.221,0.424,0.426        c0.714,0.245,1.33-0.438,2.107-0.566c0.319-0.051,0.762,0.111,1.135,0c0.422-0.133,0.746-0.555,1.121-0.7        c0.353-0.136,0.875-0.214,1.271-0.285c1.729-0.312,2.569,0,2.957,1.408c0.637,0.303,1.104,0.663,1.405,1.272        c0.236,0.457,0.187,0.916,0.433,1.404c0.541,0.627,1.806,0.543,2.674,0.848c0.343-0.404,1.062-0.442,1.552-0.703        c0.442-0.438,0.399-1.008,0.703-1.549c0.032-0.057,0.237-0.082,0.282-0.143c0.08-0.111,0.076-0.324,0.138-0.424        c0.157-0.236,0.291-0.514,0.426-0.707c0.313-0.444,0.767-0.705,0.983-1.125c0.078-0.146,0.108-0.465,0.142-0.562        c0.188-0.551,0.508-1.266,0.567-1.83c0.175-1.604-0.435-2.143-0.989-3.104C183.017,80.077,182.864,80.019,182.809,79.921        L182.809,79.921z" /><path
                 id="path76"
                 fill="#E0E0E0"
                 d="M136.449,74.71c-0.434,0.305-0.515,0.768-0.986,1.125        c-0.25,0.193-0.653,0.143-0.848,0.285c-0.675,0.479-0.402,1.055-0.564,1.971c-0.067,0.379-0.381,0.676-0.418,1.124        c-0.067,0.675-0.012,1.043,0.418,1.556c1.537,0.312,1.886-1.389,2.256-2.396c0.414-1.129,1.132-2.649,0.564-3.664        L136.449,74.71L136.449,74.71z" /><path
                 id="path78"
                 fill="#E0E0E0"
                 d="M192.388,89.788h-0.28c0.08,1.391-1.021,1.615-0.707,3.238h-1.267        c-0.412,0.438-0.754,0.99-1.266,1.408c-0.925,0.754-2.656,1.022-2.117,2.68c1.444,0.658,1.881-1.018,2.396-1.549        c0.067-0.066,0.354-0.096,0.426-0.142c0.229-0.155,0.313-0.338,0.419-0.565c0.02-0.039,0.247-0.098,0.284-0.141        c0.384-0.461,0.698-0.869,0.985-1.271c0.537-0.059,1.019-0.411,1.269-0.702c0.147-0.166,0.162-0.414,0.281-0.562        c0.45-0.549,0.728-0.522,0.707-0.99C193.483,90.542,192.712,90.438,192.388,89.788L192.388,89.788z" /><path
                 id="path80"
                 fill="#E0E0E0"
                 d="M178.149,91.618c-0.425,0.396-0.606,1.482-0.142,1.975c1.07,0.04,1.453-0.615,1.41-1.688        C179.013,91.782,178.544,91.733,178.149,91.618z" /></g></g></g><g
           id="g82"><g
             id="g84"><radialGradient
               id="path91_1_"
               cx="73.1668"
               cy="733.3086"
               r="81.7667"
               gradientTransform="matrix(1 0 0 1 -52.7783 -715.3262)"
               gradientUnits="userSpaceOnUse"><stop
                 offset="0"
                 style="stop-color:#FFCD4D"
                 id="stop56" /><stop
                 offset="1"
                 style="stop-color:#F6C338"
                 id="stop58" /></radialGradient><path
               id="path91"
               fill="url(#path91_1_)"
               d="M47.086,63.36L31.4,89.417h7.922c1.878,0,4.205-1.314,5.173-2.93l6.674-11.104       c0.789-1.63,0.762-3.997-0.14-5.499L47.086,63.36z" /><radialGradient
               id="path98_1_"
               cx="73.1692"
               cy="733.3086"
               r="81.7664"
               gradientTransform="matrix(1 0 0 1 -52.7783 -715.3262)"
               gradientUnits="userSpaceOnUse"><stop
                 offset="0"
                 style="stop-color:#0DA960"
                 id="stop62" /><stop
                 offset="1"
                 style="stop-color:#03914B"
                 id="stop64" /></radialGradient><path
               id="path98"
               fill="url(#path98_1_)"
               d="M39.914,51.492c0.969,1.608,0.969,4.245,0,5.86L22.297,86.808       c-0.683,1.457,0.024,2.609,1.772,2.609h7.328L47.086,63.36L39.914,51.492z" /><radialGradient
               id="path105_1_"
               cx="73.1677"
               cy="733.3076"
               r="81.763"
               gradientTransform="matrix(1 0 0 1 -52.7783 -715.3262)"
               gradientUnits="userSpaceOnUse"><stop
                 offset="0"
                 style="stop-color:#4387FD"
                 id="stop68" /><stop
                 offset="1"
                 style="stop-color:#4683EA"
                 id="stop70" /></radialGradient><path
               id="path105"
               fill="url(#path105_1_)"
               d="M24.072,19.417c-1.881,0-2.629,1.321-1.659,2.93l28.616,47.536       c0.899,1.503,0.929,3.869,0.14,5.499l6.957-11.578L31.404,19.417H24.072L24.072,19.417z" /><radialGradient
               id="path112_1_"
               cx="73.1687"
               cy="733.3105"
               r="81.7607"
               gradientTransform="matrix(1 0 0 1 -52.7783 -715.3262)"
               gradientUnits="userSpaceOnUse"><stop
                 offset="0"
                 style="stop-color:#E04A3F"
                 id="stop74" /><stop
                 offset="1"
                 style="stop-color:#CD372D"
                 id="stop76" /></radialGradient><path
               id="path112"
               fill="url(#path112_1_)"
               d="M61.998,51.492L44.493,22.348c-0.968-1.608-3.296-2.93-5.173-2.93h-7.918       l26.722,44.386l3.875-6.451C62.967,55.737,62.967,53.1,61.998,51.492z" /><linearGradient
               id="path119_1_"
               gradientUnits="userSpaceOnUse"
               x1="108.0564"
               y1="778.7656"
               x2="88.3584"
               y2="778.7656"
               gradientTransform="matrix(1 0 0 1 -52.7783 -715.3262)"><stop
                 offset="0"
                 style="stop-color:#231F20;stop-opacity:0.2"
                 id="stop80" /><stop
                 offset="1"
                 style="stop-color:#F1F2F2;stop-opacity:0.25"
                 id="stop82" /></linearGradient><path
               id="path119"
               fill="url(#path119_1_)"
               d="M51.029,69.884L39.914,51.492c0.969,1.608,0.969,4.245,0,5.86l-3.91,6.515       l15.162,11.519C51.955,73.753,51.928,71.386,51.029,69.884z" /></g><radialGradient
             id="path128_1_"
             cx="95.134"
             cy="769.7441"
             r="28.6342"
             gradientTransform="matrix(1 0 0 1 -52.7783 -715.3262)"
             gradientUnits="userSpaceOnUse"><stop
               offset="0"
               style="stop-color:#FFFFFF;stop-opacity:0.1"
               id="stop86" /><stop
               offset="0.0896"
               style="stop-color:#FFFFFF;stop-opacity:0.091"
               id="stop88" /><stop
               offset="1"
               style="stop-color:#FFFFFF;stop-opacity:0"
               id="stop90" /></radialGradient><path
             id="path128"
             fill="url(#path128_1_)"
             d="M61.998,51.492L44.493,22.348c-0.968-1.608-3.296-2.93-5.173-2.93h-15.25      c-1.881,0-2.629,1.321-1.659,2.93l17.504,29.144c0.969,1.608,0.969,4.245,0,5.86L22.297,86.808      c-0.683,1.457,0.024,2.609,1.772,2.609h15.25c1.877,0,4.205-1.314,5.173-2.93l13.631-22.686l3.875-6.451      C62.967,55.737,62.967,53.1,61.998,51.492z" /></g><g
           id="g130"
           display="none"><g
             id="g132"
             display="inline"><path
               id="path134"
               fill="#4D4D4D"
               d="M154.908,66.157" /><path
               id="path136"
               fill="#4D4D4D"
               d="M94.601,51.577h14.323v17.904c-3.891,1.336-8.162,1.996-12.832,1.996       c-5.112,0-9.065-1.481-11.862-4.447c-2.798-2.967-4.188-7.204-4.188-12.707c0-5.353,1.524-9.519,4.588-12.504       c3.06-2.988,7.34-4.46,12.853-4.46c2.093,0,4.06,0.188,5.909,0.588c1.863,0.39,3.482,0.884,4.861,1.484l-2.853,7.036       c-2.388-1.18-5.017-1.768-7.879-1.768c-2.606,0-4.638,0.861-6.067,2.557c-1.439,1.704-2.146,4.132-2.146,7.3       c0,3.104,0.642,5.471,1.944,7.1c1.283,1.632,3.146,2.433,5.586,2.433c1.336,0,2.563-0.116,3.681-0.383v-5.194h-5.921v-6.934       H94.601z" /><path
               id="path138"
               fill="#4D4D4D"
               d="M132.699,54.039c0-3.051-0.602-5.302-1.8-6.773c-1.198-1.462-3.039-2.199-5.489-2.199       h-2.61v18.598h2c2.734,0,4.732-0.791,5.994-2.379C132.068,59.72,132.699,57.288,132.699,54.039 M142.004,53.724       c0,5.531-1.515,9.804-4.574,12.802c-3.038,2.996-7.329,4.49-12.852,4.49h-10.74V37.82h11.483c5.322,0,9.437,1.369,12.337,4.093       c2.904,2.714,4.344,6.658,4.344,11.811" /><path
               id="path140"
               fill="#4D4D4D"
               d="M159.418,51.577h14.336v17.904c-3.894,1.336-8.172,1.996-12.832,1.996       c-5.11,0-9.065-1.481-11.865-4.447c-2.786-2.967-4.184-7.204-4.184-12.707c0-5.353,1.522-9.519,4.584-12.504       c3.051-2.988,7.34-4.46,12.854-4.46c2.082,0,4.062,0.188,5.922,0.588c1.84,0.39,3.461,0.884,4.838,1.484l-2.838,7.036       c-2.39-1.18-5.021-1.768-7.879-1.768c-2.621,0-4.64,0.861-6.08,2.557c-1.42,1.704-2.138,4.132-2.138,7.3       c0,3.104,0.644,5.471,1.937,7.1c1.296,1.632,3.156,2.433,5.597,2.433c1.336,0,2.567-0.116,3.685-0.383v-5.194h-5.935       L159.418,51.577L159.418,51.577z" /></g></g></g></g><g
       id="DevFest"
       transform="translate(-19.897 -17.893)"><g
         id="g143"><g
           id="path145"><path
             fill="#4D4D4D"
             d="M149.357,36.617c0,3.158-0.863,5.59-2.588,7.299c-1.728,1.709-4.151,2.562-7.276,2.562h-6.075v-18.92      h6.499c3.016,0,5.342,0.776,6.981,2.33C148.535,31.442,149.357,33.685,149.357,36.617z M144.09,36.799      c0-1.734-0.341-3.02-1.021-3.857s-1.715-1.255-3.103-1.255h-1.478v10.601h1.13c1.542,0,2.671-0.451,3.392-1.354      S144.09,38.654,144.09,36.799z"
             id="path102" /></g><g
           id="path147"><path
             fill="#4D4D4D"
             d="M157.865,46.738c-2.423,0-4.305-0.649-5.645-1.949c-1.342-1.297-2.012-3.146-2.012-5.545      c0-2.478,0.621-4.376,1.862-5.702c1.241-1.325,3.014-1.987,5.317-1.987c2.19,0,3.885,0.576,5.079,1.728      c1.193,1.152,1.793,2.811,1.793,4.976v2.252h-8.979c0.034,0.82,0.332,1.462,0.894,1.928c0.562,0.467,1.324,0.699,2.292,0.699      c0.883,0,1.692-0.084,2.435-0.252c0.74-0.168,1.543-0.455,2.408-0.859v3.637c-0.788,0.406-1.604,0.686-2.44,0.841      C160.032,46.662,159.03,46.738,157.865,46.738L157.865,46.738z M157.571,35c-0.591,0-1.085,0.188-1.484,0.563      c-0.396,0.375-0.631,0.963-0.698,1.766h4.313c-0.017-0.707-0.216-1.271-0.597-1.694C158.725,35.212,158.212,35,157.571,35      L157.571,35z"
             id="path106" /></g><g
           id="path149"><path
             fill="#4D4D4D"
             d="M169.347,46.48l-5.551-14.664h5.24l2.466,8.671c0.009,0.043,0.025,0.117,0.053,0.221      c0.023,0.104,0.051,0.227,0.076,0.369c0.024,0.142,0.05,0.293,0.069,0.453c0.021,0.16,0.032,0.309,0.032,0.446h0.09      c0-0.448,0.077-0.937,0.231-1.462l2.581-8.698h5.229l-5.549,14.665L169.347,46.48L169.347,46.48z"
             id="path109" /></g><g
           id="path151"><path
             fill="#4D4D4D"
             d="M185.307,46.48h-4.997V27.559h11.097v4.103h-6.101v3.611h5.626v4.102h-5.626L185.307,46.48      L185.307,46.48z"
             id="path113" /></g><g
           id="path153"><path
             fill="#4D4D4D"
             d="M199.647,46.738c-2.424,0-4.306-0.649-5.646-1.949c-1.34-1.297-2.01-3.146-2.01-5.545      c0-2.478,0.621-4.376,1.862-5.702c1.24-1.325,3.014-1.987,5.315-1.987c2.192,0,3.888,0.576,5.08,1.728      c1.194,1.152,1.792,2.811,1.792,4.976v2.252h-8.979c0.034,0.82,0.332,1.462,0.893,1.928c0.562,0.467,1.325,0.699,2.293,0.699      c0.882,0,1.693-0.084,2.436-0.252c0.74-0.168,1.544-0.455,2.407-0.859v3.637c-0.786,0.406-1.602,0.686-2.439,0.841      C201.813,46.662,200.811,46.738,199.647,46.738L199.647,46.738z M199.351,35c-0.592,0-1.085,0.188-1.483,0.563      c-0.396,0.375-0.631,0.963-0.7,1.766h4.316c-0.019-0.707-0.217-1.271-0.599-1.694S199.991,35,199.351,35L199.351,35z"
             id="path116" /></g><g
           id="path155"><path
             fill="#4D4D4D"
             d="M218.535,41.977c0,1.57-0.531,2.758-1.593,3.559c-1.062,0.803-2.586,1.205-4.572,1.205      c-1.079,0-2.017-0.059-2.812-0.176c-0.797-0.115-1.609-0.33-2.44-0.641v-4.051c0.779,0.345,1.634,0.629,2.562,0.854      c0.93,0.225,1.758,0.336,2.483,0.336c1.088,0,1.632-0.25,1.632-0.75c0-0.259-0.15-0.49-0.455-0.691      c-0.306-0.203-1.188-0.598-2.651-1.185c-1.336-0.552-2.271-1.18-2.8-1.883c-0.531-0.703-0.798-1.595-0.798-2.673      c0-1.363,0.521-2.424,1.566-3.184c1.044-0.759,2.521-1.139,4.432-1.139c0.959,0,1.859,0.106,2.703,0.317s1.721,0.52,2.626,0.925      l-1.359,3.261c-0.668-0.302-1.374-0.559-2.119-0.77s-1.354-0.317-1.823-0.317c-0.822,0-1.232,0.203-1.232,0.608      c0,0.25,0.145,0.464,0.431,0.641c0.287,0.178,1.115,0.537,2.484,1.081c1.021,0.423,1.778,0.837,2.279,1.243      c0.501,0.404,0.869,0.882,1.104,1.43C218.417,40.525,218.535,41.191,218.535,41.977z"
             id="path120" /></g><g
           id="path157"><path
             fill="#4D4D4D"
             d="M226.875,42.738c0.678,0,1.485-0.168,2.429-0.504v3.688c-0.678,0.293-1.32,0.503-1.935,0.628      s-1.329,0.188-2.15,0.188c-1.688,0-2.901-0.416-3.646-1.25c-0.745-0.832-1.117-2.111-1.117-3.836v-6.044h-1.76V33.55      l2.235-1.592l1.297-3.081h3.288v2.938h3.568v3.792h-3.568v5.708C225.516,42.266,225.969,42.738,226.875,42.738L226.875,42.738z"
             id="path123" /></g></g></g><g
       id="Silicon_Valley"
       transform="translate(-19.897 -17.893)"><g
         id="g160"><g
           id="path162"><path
             fill="#4D4D4D"
             d="M83.706,76.658H71.611v-2.172l4.602-4.627c1.359-1.392,2.262-2.379,2.704-2.961      c0.444-0.58,0.769-1.129,0.972-1.642s0.306-1.062,0.306-1.647c0-0.805-0.242-1.438-0.728-1.902      c-0.483-0.465-1.152-0.696-2.009-0.696c-0.684,0-1.345,0.126-1.982,0.379c-0.641,0.252-1.377,0.709-2.216,1.367l-1.551-1.894      c0.993-0.838,1.957-1.434,2.895-1.781c0.936-0.352,1.933-0.524,2.99-0.524c1.659,0,2.99,0.435,3.991,1.302      c1.001,0.864,1.501,2.03,1.501,3.496c0,0.807-0.145,1.569-0.434,2.295c-0.289,0.725-0.732,1.471-1.331,2.239      c-0.598,0.771-1.593,1.81-2.984,3.119l-3.101,3.003v0.122h8.472L83.706,76.658L83.706,76.658z"
             id="path129" /></g><g
           id="path164"><path
             fill="#4D4D4D"
             d="M96.477,67.736c0,3.102-0.499,5.402-1.496,6.908s-2.521,2.258-4.571,2.258      c-1.985,0-3.491-0.775-4.517-2.33s-1.538-3.834-1.538-6.836c0-3.148,0.499-5.471,1.495-6.965c0.997-1.494,2.517-2.24,4.56-2.24      c1.994,0,3.503,0.781,4.529,2.346C95.963,62.439,96.477,64.725,96.477,67.736z M87.259,67.736c0,2.434,0.25,4.17,0.75,5.211      c0.5,1.043,1.301,1.562,2.398,1.562s1.902-0.529,2.411-1.587s0.763-2.787,0.763-5.188c0-2.393-0.254-4.123-0.763-5.193      c-0.508-1.069-1.312-1.604-2.411-1.604c-1.099,0-1.897,0.524-2.398,1.575C87.508,63.561,87.259,65.303,87.259,67.736      L87.259,67.736z"
             id="path132" /></g><g
           id="path166"><path
             fill="#4D4D4D"
             d="M105.575,76.658h-2.869V65.136c0-1.375,0.032-2.466,0.1-3.271c-0.188,0.194-0.417,0.41-0.69,0.646      c-0.271,0.235-1.187,0.983-2.74,2.246l-1.438-1.817l5.249-4.128h2.393L105.575,76.658L105.575,76.658z"
             id="path135" /></g><g
           id="path170"><path
             fill="#4D4D4D"
             d="M139.237,71.814c0,1.586-0.574,2.832-1.721,3.734c-1.147,0.902-2.73,1.354-4.749,1.354      c-2.021,0-3.67-0.312-4.956-0.938v-2.76c0.812,0.383,1.678,0.685,2.594,0.902c0.916,0.219,1.769,0.33,2.558,0.33      c1.155,0,2.009-0.221,2.559-0.66c0.549-0.438,0.823-1.027,0.823-1.77c0-0.668-0.252-1.232-0.758-1.697      c-0.505-0.463-1.546-1.013-3.125-1.646c-1.628-0.658-2.773-1.412-3.44-2.26c-0.667-0.846-1.001-1.861-1.001-3.051      c0-1.49,0.528-2.662,1.587-3.518c1.058-0.854,2.478-1.279,4.26-1.279c1.709,0,3.41,0.373,5.104,1.123l-0.929,2.379      c-1.587-0.666-3.003-1-4.248-1c-0.942,0-1.659,0.205-2.146,0.615c-0.488,0.41-0.732,0.953-0.732,1.631      c0,0.463,0.099,0.859,0.293,1.189c0.195,0.328,0.519,0.641,0.964,0.934c0.447,0.293,1.254,0.68,2.418,1.16      c1.311,0.545,2.271,1.055,2.881,1.525c0.609,0.471,1.059,1.004,1.344,1.6C139.093,70.309,139.237,71.008,139.237,71.814      L139.237,71.814z"
             id="path139" /></g><g
           id="path172"><path
             fill="#4D4D4D"
             d="M146.777,76.902c-2.101,0-3.742-0.611-4.926-1.836c-1.186-1.226-1.776-2.912-1.776-5.061      c0-2.206,0.549-3.939,1.648-5.199c1.099-1.264,2.606-1.895,4.527-1.895c1.782,0,3.19,0.541,4.226,1.625      c1.032,1.082,1.55,2.57,1.55,4.468v1.55h-8.997c0.041,1.311,0.396,2.316,1.062,3.021c0.667,0.703,1.606,1.056,2.819,1.056      c0.797,0,1.54-0.075,2.229-0.226c0.688-0.15,1.426-0.401,2.216-0.752v2.332c-0.7,0.334-1.408,0.569-2.124,0.707      C148.514,76.834,147.696,76.902,146.777,76.902L146.777,76.902z M146.25,65.088c-0.912,0-1.642,0.289-2.189,0.867      c-0.55,0.576-0.877,1.42-0.982,2.525h6.128c-0.017-1.115-0.285-1.959-0.806-2.533C147.878,65.375,147.161,65.088,146.25,65.088      L146.25,65.088z"
             id="path142" /></g><g
           id="path174"><path
             fill="#4D4D4D"
             d="M162.237,76.658l-0.574-1.879h-0.098c-0.651,0.822-1.307,1.383-1.965,1.68      c-0.659,0.297-1.507,0.443-2.539,0.443c-1.327,0-2.362-0.356-3.107-1.072c-0.745-0.717-1.117-1.729-1.117-3.039      c0-1.393,0.519-2.44,1.551-3.149c1.032-0.707,2.607-1.095,4.725-1.159l2.332-0.072v-0.721c0-0.863-0.202-1.509-0.604-1.938      c-0.402-0.428-1.026-0.641-1.874-0.641c-0.691,0-1.354,0.103-1.989,0.307c-0.636,0.203-1.245,0.441-1.831,0.72l-0.929-2.051      c0.731-0.384,1.533-0.673,2.404-0.873c0.871-0.199,1.692-0.3,2.466-0.3c1.718,0,3.015,0.375,3.89,1.123      c0.875,0.75,1.312,1.926,1.312,3.527v9.094H162.237z M157.962,74.707c1.042,0,1.879-0.291,2.51-0.873s0.944-1.397,0.944-2.447      v-1.172l-1.731,0.072c-1.353,0.05-2.333,0.273-2.948,0.679c-0.614,0.401-0.921,1.021-0.921,1.851      c0,0.602,0.179,1.066,0.537,1.396C156.709,74.541,157.246,74.707,157.962,74.707L157.962,74.707z"
             id="path146" /></g><g
           id="path176"><path
             fill="#4D4D4D"
             d="M175.857,72.814c0,1.318-0.48,2.33-1.44,3.033c-0.96,0.704-2.336,1.057-4.126,1.057      c-1.799,0-3.242-0.271-4.333-0.816v-2.479c1.587,0.731,3.064,1.1,4.433,1.1c1.766,0,2.647-0.533,2.647-1.6      c0-0.343-0.098-0.627-0.293-0.854c-0.194-0.229-0.517-0.464-0.964-0.708c-0.448-0.244-1.07-0.521-1.868-0.83      c-1.555-0.604-2.604-1.205-3.155-1.809c-0.55-0.602-0.823-1.383-0.823-2.344c0-1.156,0.466-2.053,1.396-2.691      c0.933-0.639,2.199-0.957,3.804-0.957c1.587,0,3.088,0.32,4.504,0.965l-0.929,2.16c-1.457-0.604-2.682-0.903-3.674-0.903      c-1.514,0-2.271,0.433-2.271,1.295c0,0.422,0.195,0.78,0.592,1.073c0.395,0.293,1.255,0.695,2.582,1.209      c1.114,0.431,1.924,0.824,2.429,1.186c0.504,0.356,0.879,0.771,1.123,1.237C175.734,71.605,175.857,72.164,175.857,72.814z"
             id="path150" /></g><g
           id="path178"><path
             fill="#4D4D4D"
             d="M189.437,69.885c0,2.205-0.564,3.926-1.696,5.163s-2.706,1.854-4.724,1.854      c-1.264,0-2.376-0.285-3.347-0.854c-0.969-0.567-1.713-1.388-2.232-2.453c-0.521-1.065-0.781-2.304-0.781-3.711      c0-2.188,0.562-3.897,1.686-5.127s2.706-1.845,4.749-1.845c1.952,0,3.499,0.629,4.64,1.887      C188.867,66.059,189.437,67.752,189.437,69.885z M179.611,69.885c0,3.115,1.15,4.676,3.455,4.676      c2.277,0,3.418-1.561,3.418-4.676c0-3.085-1.147-4.627-3.442-4.627c-1.205,0-2.076,0.398-2.618,1.195      C179.881,67.252,179.611,68.396,179.611,69.885z"
             id="path154" /></g><g
           id="path180"><path
             fill="#4D4D4D"
             d="M203.107,76.658h-2.881v-8.301c0-1.041-0.209-1.816-0.628-2.33c-0.421-0.514-1.086-0.771-1.996-0.771      c-1.213,0-2.102,0.358-2.661,1.073c-0.562,0.717-0.843,1.918-0.843,3.604v6.725h-2.868v-13.5h2.246l0.4,1.771h0.146      c0.407-0.645,0.984-1.141,1.731-1.488c0.749-0.352,1.579-0.525,2.49-0.525c3.239,0,4.858,1.648,4.858,4.945v8.799h0.004V76.658z      "
             id="path158" /></g><g
           id="g161"><rect
             x="109.093"
             y="58.16"
             fill="none"
             width="25.25"
             height="30.474"
             id="rect163" /></g><g
           enable-background="new    "
           id="g165"><text
             xml:space="preserve"
             style="font-size:23.87481117000000097px;font-style:normal;font-weight:normal;line-height:123.00000191000000882%;letter-spacing:0px;word-spacing:0px;fill:#4d4d4d;fill-opacity:1;stroke:none;font-family:Sans;writing-mode:lr"
             x="108.83961"
             y="75.629768"
             id="text3168"
             sodipodi:linespacing="123%"
             transform="scale(0.99149885,1.008574)"><tspan
               sodipodi:role="line"
               id="tspan3170"
               x="108.83961"
               y="75.629768"
               style="line-height:123.00000191000000882%;letter-spacing:-0.00596870000000000px;fill:#4d4d4d;fill-opacity:1;font-weight:normal;-inkscape-font-specification:Sans;writing-mode:lr">5</tspan></text>
</g></g></g><g
       id="GDG"
       transform="translate(-19.897 -17.893)"><g
         id="g183"><g
           id="path185"><path
             fill="#4D4D4D"
             d="M78.148,35.843h8.168v10.2c-2.218,0.76-4.656,1.139-7.313,1.139c-2.917,0-5.171-0.846-6.764-2.537      c-1.592-1.691-2.388-4.104-2.388-7.236c0-3.055,0.872-5.432,2.614-7.131c1.742-1.7,4.186-2.55,7.326-2.55      c1.191,0,2.314,0.112,3.372,0.336c1.058,0.225,1.979,0.509,2.764,0.854L84.31,32.93c-1.364-0.673-2.861-1.01-4.492-1.01      c-1.493,0-2.647,0.485-3.463,1.456c-0.816,0.971-1.224,2.358-1.224,4.162c0,1.77,0.368,3.119,1.106,4.045      c0.738,0.928,1.801,1.392,3.189,1.392c0.76,0,1.458-0.073,2.098-0.22v-2.965h-3.378L78.148,35.843L78.148,35.843z"
             id="path173" /></g><g
           id="path187"><path
             fill="#4D4D4D"
             d="M104.647,37.061c0,3.159-0.869,5.592-2.608,7.301c-1.738,1.709-4.184,2.563-7.333,2.563H88.58V27.999      h6.55c3.037,0,5.383,0.777,7.035,2.33c1.653,1.553,2.479,3.798,2.479,6.731H104.647z M99.338,37.242      c0-1.735-0.343-3.021-1.027-3.857c-0.688-0.836-1.729-1.256-3.126-1.256h-1.489V42.73h1.139c1.554,0,2.692-0.451,3.417-1.354      C98.977,40.477,99.338,39.098,99.338,37.242z"
             id="path177" /></g><g
           id="path189"><path
             fill="#4D4D4D"
             d="M114.045,35.843h8.168v10.2c-2.218,0.76-4.654,1.139-7.312,1.139c-2.917,0-5.171-0.846-6.765-2.537      c-1.593-1.691-2.389-4.104-2.389-7.236c0-3.055,0.872-5.432,2.615-7.131c1.743-1.7,4.186-2.55,7.327-2.55      c1.19,0,2.312,0.112,3.372,0.336c1.057,0.225,1.978,0.509,2.763,0.854l-1.618,4.013c-1.363-0.673-2.859-1.01-4.491-1.01      c-1.492,0-2.646,0.485-3.464,1.456c-0.813,0.971-1.223,2.358-1.223,4.162c0,1.77,0.369,3.119,1.106,4.045      c0.737,0.928,1.802,1.392,3.189,1.392c0.759,0,1.458-0.073,2.098-0.22v-2.965h-3.379L114.045,35.843L114.045,35.843z"
             id="path181" /></g></g></g></g></svg>